<?xml version="1.0" encoding="UTF-8"?>
<svg id="Layer_2" data-name="Layer 2" xmlns="http://www.w3.org/2000/svg" viewBox="0 0 800.03 799.97">
  <defs>
    <style>
      .cls-1 {
        stroke-width: 0px;
      }
    </style>
  </defs>
  <g id="Layer_1-2" data-name="Layer 1">
    <path class="cls-1" d="M799.93,204.1c0-.97.03-2.1.03-3.23,0-24.77-2.93-48.83-8.43-71.87l.43,2.1c-10.4-43.03-36.67-78.63-72.1-101.03l-.67-.4c-17.87-11.67-38.93-20.13-61.57-24.1l-1-.13c-15.43-2.8-33.43-4.6-51.77-5h-.37c-1.33,0-2.77-.33-4.13-.43H199.53c-5.07.33-10,.57-15.17.87-26.37.53-51.4,5.37-74.73,13.83l1.63-.5C67.73,30.9,33.7,64.03,16.17,105.8l-.4,1.1c-5.67,13.63-9.9,29.5-12,46l-.1.93c-1.7,11.43-2.9,25.03-3.33,38.83v.53c0,1.07-.23,2.07-.33,3.1v407.47c.33,4.67.57,9.43.9,14.13.67,28.7,6.73,55.77,17.2,80.53l-.53-1.43c20.3,45.47,59.13,79.57,106.63,93.07l1.17.3c12.57,3.7,27.23,6.4,42.37,7.57l.73.03c18.5,1.77,37,2,55.57,2h367.6c18.47,0,36.63-1.23,54.43-3.57l-2.1.23c28.8-3.2,54.83-12.83,77.37-27.43l-.7.43c27.5-17.97,49-43,62.23-72.53l.43-1.07c5.53-12.77,9.83-27.63,12.2-43.1l.13-1.03c2.8-17.97,4.4-38.7,4.4-59.8,0-2.87-.03-5.7-.1-8.53v.43V204.1ZM585.8,337.1v190.4c.03.83.03,1.8.03,2.77,0,13.57-3,26.47-8.4,38l.23-.57c-9.1,18.73-25.7,32.63-45.77,37.9l-.5.1c-10.53,3.13-22.73,5.2-35.33,5.77h-.33c-.97.07-2.07.07-3.2.07-34.43,0-62.37-27.93-62.37-62.37,0-24.7,14.37-46.07,35.2-56.17l.37-.17c9.77-4.67,21.17-8.4,33.03-10.67l.9-.13c12.6-2.73,25.27-5.1,37.8-8,8.8-1.5,15.6-8.4,17-17.1v-.1c.43-1.9.67-4.07.67-6.3v-181.6c-.03-2.2-.33-4.33-.9-6.33l.03.17c-.87-4.47-4.77-7.83-9.43-7.83-.2,0-.4,0-.6.03h.03c-5.93.43-11.33,1.2-16.63,2.33l.8-.13c-25.33,5-50.67,10.07-76,15.2l-123.33,24.93c-.53,0-1.07.33-1.6.43-7.4,1-13.07,7.3-13.07,14.9,0,.5.03,1,.07,1.5v-.07,264.37c.03.93.03,2.07.03,3.17,0,13.6-2.63,26.57-7.47,38.4l.23-.7c-8.8,20.47-26.4,35.73-47.87,41.17l-.5.1c-10.63,3.2-22.9,5.27-35.57,5.73h-.27c-1.03.07-2.23.1-3.47.1-30.43,0-55.67-22.17-60.5-51.2l-.03-.37c-.67-3.4-1.03-7.27-1.03-11.27,0-26.17,16.17-48.6,39.07-57.77l.43-.13c10.5-4.23,22.9-7.8,35.73-10.17l1.2-.17c9.57-2,19.17-3.87,28.67-5.9,11.37-1.67,20-11.37,20-23.1v-.73.03V204.3c0-4.3.5-8.47,1.47-12.47l-.07.37c2.2-8.8,9.23-15.53,18.07-17.23l.13-.03c8.5-2.2,17.17-3.73,25.8-5.5,24.43-5,48.87-10,73.33-14.8l75.67-15.33c22.33-4.47,44.67-9,67-13.33,6.03-1.4,13.57-2.63,21.23-3.47l.9-.07c.6-.07,1.33-.13,2.03-.13,9,0,16.3,7.23,16.43,16.17.27,2.23.4,4.8.4,7.4v191.1l.23.13Z"/>
  </g>
</svg>