<?xml version="1.0" encoding="UTF-8"?>
<svg id="Layer_2" data-name="Layer 2" xmlns="http://www.w3.org/2000/svg" viewBox="0 0 436.6 566.84">
  <defs>
    <style>
      .cls-1 {
        stroke-width: 0px;
      }
    </style>
  </defs>
  <g id="Layer_4" data-name="Layer 4">
    <g>
      <path class="cls-1" d="M410.99,0h-167.81c-15.64,0-29.79,12.8-31.43,28.44l-17.64,167.81c-1.64,15.64,9.81,28.44,25.45,28.44h24.73c1.74-8.99,3.51-18.02,5.33-26.98,2.83-13.94,11.01-27.1,23.04-37.06,11.98-9.92,26.2-15.39,40.02-15.39,1.33,0,2.66.05,3.97.15,14.85,1.16,27.56,7.71,35.79,18.43,8.19,10.68,11.21,24.57,8.5,39.14-1.34,7.21-2.72,14.46-4.11,21.7h30.54c15.64,0,29.79-12.8,31.43-28.44l17.64-167.81c1.64-15.64-9.81-28.44-25.45-28.44Z"/>
      <path class="cls-1" d="M332.36,287.55c5.53-29.03,11.39-58,16.79-87.06,4.32-23.26-9.98-41.58-33.43-43.42-23.54-1.85-49.36,18.24-54.33,42.71-5.08,25-9.71,50.09-14.54,75.14-8.38,43.41-16.77,86.83-25.13,130.24-8.33,43.21-16.63,86.43-24.93,129.65-2.03,10.54-4.02,21.09-6.1,32.03h88.12c.54-2.02,1.02-3.44,1.3-4.9,9.18-47.81,18.39-95.61,27.49-143.43,8.31-43.64,16.45-87.32,24.76-130.96Z"/>
      <path class="cls-1" d="M120.44,566.82s53.1.38,61.5-36.37c2.21-11.32,4.38-22.65,6.57-33.98,8.37-43.41,16.74-86.83,25.08-130.25,3.81-19.82,7.57-39.65,11.49-60.19-17.92,0-34.75-.22-51.57.06-20.25.33-34.92,13.42-38.64,33.13-9.14,48.46-18.56,96.86-27.87,145.29-5.2,27.07-10.39,55.15-15.6,82.27,8.87-.09,31.83.04,29.04.04Z"/>
      <path class="cls-1" d="M319.13,439.91c-2.48,14.89-5.62,29.66-8.47,44.48-5.25,27.34-10.66,54.32-16.05,82.34,12.55,0,24.83.03,36.92.03,23.36,0,48.02-21.15,51.76-42.51,4.85-27.64,10.59-55.12,15.9-82.68,2.75-14.3,5.4-28.63,8.22-43.58-13.07,0-24.53-.13-37.74-.13-22.63,0-46.45,17.49-50.54,42.05Z"/>
      <path class="cls-1" d="M114.49,336.26c-15.78-.03-31.57-.11-47.35,0-19.98.15-32.3,10.52-36.07,30.08-9.77,50.73-19.56,101.45-29.32,152.17-.57,2.95-1.13,5.9-1.69,8.86-.03.64-.06,1.91-.06,2.45,0,7.06,2.02,14.04,5.81,20,3.19,5.02,7.58,9.25,12.72,12.25,2.59,1.52,5.36,2.7,8.24,3.57,3.86,1.17,8.07,1.02,12.06,1.06l37.47-.03c14.76-76.72,29.45-153.08,44.24-229.97-2.31-.17-4.18-.43-6.04-.43Z"/>
    </g>
  </g>
</svg>