<?xml version="1.0" encoding="UTF-8"?>
<svg id="Layer_2" data-name="Layer 2" xmlns="http://www.w3.org/2000/svg" viewBox="0 0 800 800">
  <defs>
    <style>
      .cls-1 {
        fill-rule: evenodd;
        stroke-width: 0px;
      }
    </style>
  </defs>
  <g id="Layer_1-2" data-name="Layer 1">
    <g id="Page-1">
      <g id="Dribbble-Light-Preview">
        <g id="icons">
          <path id="spotify-_162_" data-name="spotify-[#162]" class="cls-1" d="M636.6,354.61c-128.92-76.56-341.6-83.61-464.72-46.25-19.76,5.96-40.64-5.16-46.64-24.96-6-19.77,5.16-40.64,24.92-46.64,141.32-42.91,376.2-34.63,524.64,53.48,17.76,10.57,23.6,33.54,13.04,51.29-10.48,17.75-33.52,23.63-51.24,13.09h0ZM632.4,468.01c-9.04,14.67-28.24,19.28-42.92,10.27-107.48-66.07-271.4-85.2-398.56-46.6-16.52,4.96-33.92-4.32-38.92-20.8-4.96-16.48,4.32-33.89,20.8-38.89,145.24-44.06,325.84-22.71,449.32,53.16,14.68,9,19.28,28.2,10.28,42.85h0ZM583.44,576.91c-7.2,11.76-22.52,15.49-34.28,8.28-93.92-57.4-212.16-70.35-351.4-38.55-13.4,3.09-26.8-5.31-29.84-18.77-3.08-13.4,5.28-26.76,18.76-29.82,152.36-34.84,283.04-19.84,388.48,44.59,11.76,7.21,15.48,22.52,8.28,34.28h0ZM400,0C179.08,0,0,179.08,0,400s179.08,400,400,400,400-179.08,400-400S620.92.04,400,.04v-.04Z"/>
        </g>
      </g>
    </g>
  </g>
</svg>