<?xml version="1.0" encoding="UTF-8"?>
<svg id="Layer_2" data-name="Layer 2" xmlns="http://www.w3.org/2000/svg" viewBox="0 0 446.34 483.89">
  <defs>
    <style>
      .cls-1, .cls-2 {
        stroke-width: 0px;
      }

      .cls-2 {
        fill: #fff;
      }
    </style>
  </defs>
  <g id="Layer_1-2" data-name="Layer 1">
    <g id="wjs0I1.tif">
      <g>
        <path class="cls-2" d="M149.85,51.15C36.33,95.5-25.6,203.49,10.08,325.23c28.7,97.92,123.6,170.84,242.39,156.97,101.5-11.85,186.33-99.63,193.35-203.81,7.6-112.83-71.23-205.2-149.26-225.22-6.06,9.82-5.45,11.71,4.94,16.57,69.77,32.62,114.61,85.3,126.2,162.42,10.05,66.9-10.56,125.54-57.51,173.48-65.4,66.8-165.74,79.12-243.73,38.35C58.61,408.53,12.11,329.45,16.68,252.84c2.94-49.21,19.88-92.54,52.99-129.36,20.61-22.91,45.66-39.44,73.5-52.21,11.89-5.45,12.12-6.96,6.68-20.13Z"/>
        <path class="cls-1" d="M224.43,0c8.57,9.93,16.78,20.21,25.83,29.69,6.75,7.07,10.32,14.35,9.16,24.47-3.61,31.68-6.5,63.43-9.9,95.13-1.07,9.96-1.95,19.92,4.47,28.37,20.22,26.61,17.71,55.62,9.66,85.33-.26.94-.7,1.83-1.57,4.04-2.86-15.92-5.51-30.62-8.15-45.33-.78-.04-1.56-.08-2.33-.13-2.27,5.71-4.38,11.5-6.88,17.11-1.21,2.71-2.59,6.42-4.87,7.4-12.29,5.3-10.16,15.02-7.92,24.48,3.74,15.83,8.01,31.53,12.16,47.26.66,2.5,1.83,4.86,2.47,6.54,9.02-3.87,16.99-8.59,25.6-10.68,12.44-3.02,23.41,2.37,32.67,10.41,4.89,4.25,8.08,3.48,11.87-.91,9.22-10.67,20.92-14.06,34.77-12.32,3.46.44,8.11-.98,10.78-3.23,7.11-6.01,13.44-12.95,20.81-20.24-6.31-18.08,5.23-29.74,19.47-40.68-3.54-12.75-4.28-25.32,6.35-35.82,19.69,54.6,3.61,136.51-49.19,187.5-75.12,72.55-167.33,64.92-223.85,34.32-43.38-23.49-75.89-57.28-93.71-104.34-14.72-38.88-14.81-78.03-5.67-118.07,14.45,6.71,15.45,19.71,3.11,41.05,16.74,8.28,27.53,21.26,28.77,40.55,26.39.66,42.97,14.99,54.91,37.38,10.96-10.26,20.53-21.9,37.31-22.34,16.07-.42,28.62,6.56,40.88,16.88,5.2-20.68,10.69-40.26,14.78-60.13,1.25-6.08.08-12.92-7.82-16.95-4.14-2.11-6.3-8.41-8.96-13.04-1.81-3.15-2.95-6.69-4.38-10.05-1.04-.04-2.09-.08-3.13-.11-2.41,14.46-4.81,28.92-7.22,43.39-3.79-25.04-17.29-50.32.64-74.99,15.22-20.94,12.69-43.9,9.48-67.38-3.43-25.13-6.31-50.36-8.44-75.63-.39-4.61,3.11-10.32,6.31-14.33,9.49-11.86,19.73-23.12,29.67-34.61.68,0,1.36,0,2.05,0Z"/>
        <path class="cls-1" d="M149.85,51.15c5.44,13.17,5.21,14.68-6.68,20.13-27.84,12.77-52.89,29.29-73.5,52.21-33.11,36.81-50.06,80.15-52.99,129.36-4.57,76.61,41.94,155.69,109.79,191.16,77.99,40.77,178.33,28.45,243.73-38.35,46.94-47.95,67.56-106.58,57.51-173.48-11.59-77.11-56.43-129.79-126.2-162.42-10.39-4.86-11.01-6.76-4.94-16.57,78.03,20.02,156.86,112.39,149.26,225.22-7.02,104.18-91.86,191.96-193.35,203.81-118.79,13.86-213.69-59.05-242.39-156.97C-25.6,203.49,36.33,95.5,149.85,51.15Z"/>
      </g>
    </g>
  </g>
</svg>